<?xml version="1.0" encoding="utf-8"?>
<!-- Generator: Adobe Illustrator 16.0.0, SVG Export Plug-In . SVG Version: 6.00 Build 0)  -->
<!DOCTYPE svg PUBLIC "-//W3C//DTD SVG 1.1//EN" "http://www.w3.org/Graphics/SVG/1.1/DTD/svg11.dtd">
<svg version="1.1" xmlns="http://www.w3.org/2000/svg" xmlns:xlink="http://www.w3.org/1999/xlink" x="0px" y="0px" width="300px"
	 height="200px" viewBox="0 0 300 200" enable-background="new 0 0 300 200" xml:space="preserve">
<g id="Ebene_3" display="none">
	<rect x="-3" y="-7" display="inline" fill="#F08486" width="308" height="216"/>
</g>
<g id="Ebene_2">
	<g>
		<path fill="#FFFFFF" d="M54.866,184.016l15.499-19.156c1.311-1.596,2.539-3.192,3.918-4.788l4.021-4.668l8.051-9.325
			l32.233-37.275c2.694-3.097,5.351-6.23,8.094-9.316c2.729-3.082,5.477-6.143,8.24-9.19c5.527-6.094,11.118-12.132,16.777-18.11
			c5.661-5.976,11.388-11.894,17.239-17.698c5.849-5.808,11.788-11.534,17.91-17.095c6.131-5.552,12.4-10.978,19.151-15.967
			c3.397-2.475,6.887-4.865,10.807-6.88c1.975-0.994,4.045-1.916,6.508-2.474c0.295-0.08,0.63-0.125,0.958-0.173l0.493-0.07
			l0.247-0.033l0.347-0.023l0.407-0.018c0.252,0.001,0.506,0.011,0.759,0.027c0.488,0.049,0.908,0.108,1.396,0.254
			c0.941,0.262,1.919,0.8,2.66,1.513c0.748,0.708,1.265,1.53,1.597,2.284c0.668,1.528,0.847,2.888,0.935,4.139
			c0.078,1.256,0.033,2.43-0.061,3.57c-0.196,2.274-0.587,4.418-1.048,6.52c-0.933,4.196-2.154,8.217-3.47,12.188
			c-2.651,7.93-5.716,15.63-8.915,23.26c-6.432,15.24-13.46,30.157-20.672,44.975c-3.616,7.403-7.299,14.771-11.037,22.11
			c-3.729,7.349-7.495,14.662-11.36,21.964l-2.602,4.915l-4.547-3.457c-4.26-3.238-8.596-6.584-12.807-9.979
			c-4.224-3.403-8.405-6.862-12.535-10.388c-4.114-3.543-8.18-7.149-12.187-10.83c-4.008-3.681-7.915-7.479-11.766-11.349
			c-3.854-3.866-7.6-7.857-11.219-11.986c-3.619-4.13-7.137-8.378-10.43-12.851c-3.277-4.483-6.369-9.161-9.042-14.201
			c-2.633-5.049-4.965-10.462-5.903-16.62c-0.45-3.068-0.479-6.358,0.265-9.634c0.375-1.633,0.939-3.247,1.692-4.768
			c0.384-0.756,0.801-1.496,1.27-2.196l0.354-0.523l0.165-0.234l0.077-0.1l0.153-0.2l0.614-0.8c1.92-2.445,4.187-4.701,6.842-6.441
			c2.649-1.754,5.646-3.059,8.732-3.72c3.085-0.669,6.219-0.782,9.216-0.459c3,0.324,5.88,1.018,8.629,1.938
			c5.5,1.856,10.494,4.575,15.133,7.671c4.621,3.135,8.89,6.671,12.877,10.465c3.993,3.79,7.672,7.878,11.037,12.205
			c3.364,4.324,6.423,8.897,8.91,13.799c1.226,2.458,2.343,4.985,3.121,7.645c0.756,2.646,1.313,5.448,0.896,8.262
			c-0.041,0.273-0.295,0.462-0.568,0.421c-0.256-0.038-0.438-0.263-0.427-0.515l0.001-0.017c0.117-2.574-0.658-5.134-1.628-7.548
			c-1.005-2.419-2.259-4.743-3.644-6.985c-2.815-4.465-6.112-8.629-9.656-12.546c-3.561-3.907-7.398-7.552-11.424-10.935
			c-4.036-3.369-8.299-6.448-12.77-9.071c-4.451-2.637-9.131-4.847-13.919-6.175c-2.389-0.662-4.799-1.096-7.162-1.224
			c-2.363-0.118-4.661,0.103-6.817,0.649c-2.156,0.558-4.132,1.535-5.917,2.816c-0.452,0.312-0.862,0.692-1.299,1.028
			c-0.402,0.39-0.821,0.755-1.212,1.16c-0.364,0.419-0.803,0.832-1.113,1.246l-0.494,0.613l-0.254,0.314l-0.291,0.412l-0.582,0.825
			l-0.145,0.206l-0.073,0.103c-0.031,0.042,0.126-0.176,0.049-0.065l-0.024,0.041l-0.197,0.322
			c-0.262,0.429-0.485,0.875-0.693,1.326c-0.399,0.91-0.689,1.864-0.875,2.862c-0.361,1.999-0.287,4.176,0.095,6.414
			c0.797,4.495,2.835,9.098,5.303,13.486c2.493,4.402,5.459,8.65,8.647,12.762c3.184,4.119,6.571,8.133,10.111,12.034
			c3.544,3.898,7.211,7.71,10.946,11.469c3.74,3.756,7.592,7.413,11.475,11.047c3.884,3.633,7.836,7.202,11.842,10.716
			c3.992,3.531,8.035,7.01,12.126,10.434c4.102,3.435,8.184,6.79,12.409,10.167l-7.148,1.458
			c8.013-14.249,15.778-28.701,23.27-43.254c7.494-14.556,14.732-29.246,21.349-44.156c3.291-7.457,6.44-14.975,9.138-22.578
			c1.338-3.798,2.572-7.627,3.49-11.435c0.456-1.899,0.828-3.8,1.018-5.616c0.093-0.904,0.136-1.787,0.101-2.582
			c-0.025-0.792-0.171-1.497-0.322-1.857c-0.071-0.189-0.132-0.242-0.126-0.244c0.001,0.001,0.06,0.023,0.016,0.002
			c-0.001-0.014-0.094-0.02-0.113-0.03c-0.004,0.002-0.007-0.003-0.011-0.015l-0.362,0.009l-0.096,0.003
			c-0.161,0.009,0.108-0.01,0.059-0.003l-0.135,0.019l-0.27,0.035c-0.18,0.022-0.356,0.033-0.558,0.088
			c-1.556,0.315-3.299,1.005-4.998,1.833c-3.423,1.675-6.786,3.866-10.062,6.166c-6.552,4.656-12.822,9.874-18.962,15.234
			c-6.137,5.373-12.131,10.939-18.042,16.599c-5.903,5.668-11.745,11.412-17.52,17.227c-5.773,5.817-11.483,11.701-17.133,17.643
			c-2.825,2.971-5.635,5.957-8.422,8.959c-2.784,2.987-5.512,6.056-8.282,9.092l-33.102,36.507l-8.283,9.12l-4.146,4.556
			c-1.349,1.474-2.674,3.097-4.012,4.638l-16.019,18.723c-0.18,0.21-0.495,0.235-0.705,0.056
			C54.723,184.533,54.696,184.225,54.866,184.016z"/>
	</g>
</g>
</svg>
